<?xml version="1.0" standalone="no"?>
<!DOCTYPE svg PUBLIC "-//W3C//DTD SVG 20010904//EN"
 "http://www.w3.org/TR/2001/REC-SVG-20010904/DTD/svg10.dtd">
<svg version="1.0" xmlns="http://www.w3.org/2000/svg"
 width="144.000000pt" height="144.000000pt" viewBox="0 0 144.000000 144.000000"
 preserveAspectRatio="xMidYMid meet">

<g transform="translate(0.000000,144.000000) scale(0.100000,-0.100000)"
fill="#000000" stroke="none">
<path d="M472 1254 c-29 -20 -28 -59 3 -100 14 -18 25 -35 25 -37 0 -2 -41 -7
-91 -10 -120 -8 -166 -33 -206 -114 l-28 -58 0 -260 c0 -286 4 -310 58 -372
49 -55 78 -63 297 -74 227 -13 556 1 612 24 42 18 92 74 109 124 20 55 19 532
0 588 -34 99 -90 135 -223 143 -49 3 -88 7 -88 9 0 2 11 21 25 41 32 47 32 77
0 98 -38 25 -68 6 -117 -71 l-42 -65 -87 0 -87 0 -42 65 c-56 86 -77 98 -118
69z m641 -266 c43 -29 51 -79 50 -323 0 -249 -8 -289 -58 -315 -25 -13 -87
-15 -385 -15 -255 1 -363 4 -383 13 -51 22 -59 63 -60 292 -1 313 9 348 99
361 27 4 198 6 379 6 296 -2 334 -4 358 -19z"/>
<path d="M491 805 c-108 -38 -131 -51 -131 -80 0 -44 25 -45 139 -5 110 39
134 57 115 88 -16 25 -41 25 -123 -3z"/>
<path d="M833 819 c-7 -7 -13 -21 -13 -30 0 -24 13 -31 127 -71 83 -30 104
-34 118 -24 10 7 16 22 13 37 -2 20 -17 29 -83 56 -100 39 -146 48 -162 32z"/>
<path d="M560 611 c0 -15 9 -40 20 -54 28 -36 65 -42 106 -18 l34 20 34 -20
c44 -26 81 -17 107 25 21 34 25 76 8 76 -5 0 -15 -14 -21 -30 -20 -58 -76 -63
-103 -9 -20 37 -29 37 -52 -1 -18 -31 -53 -48 -73 -35 -7 4 -18 23 -26 41 -17
42 -34 44 -34 5z"/>
</g>
</svg>
