<?xml version="1.0" encoding="utf-8"?>
<svg viewBox="0 0 16 16" fill="currentColor" xmlns="http://www.w3.org/2000/svg">
  <path d="M 11.672 4.358 C 10.93 4.017 10.148 3.774 9.343 3.634 C 9.327 3.631 9.312 3.639 9.305 3.653 C 9.204 3.831 9.094 4.065 9.014 4.247 C 8.147 4.116 7.267 4.116 6.399 4.247 C 6.313 4.044 6.214 3.846 6.104 3.653 C 6.096 3.64 6.081 3.632 6.067 3.634 C 5.262 3.773 4.479 4.017 3.737 4.358 C 3.732 4.359 3.726 4.364 3.722 4.371 C 2.239 6.587 1.831 8.75 2.03 10.885 C 2.031 10.895 2.038 10.904 2.046 10.912 C 2.91 11.55 3.876 12.04 4.904 12.356 C 4.918 12.361 4.934 12.355 4.944 12.343 C 5.164 12.042 5.361 11.726 5.529 11.391 C 5.536 11.378 5.533 11.36 5.521 11.35 C 5.518 11.346 5.513 11.343 5.509 11.342 C 5.201 11.223 4.902 11.081 4.616 10.917 C 4.599 10.906 4.593 10.886 4.602 10.869 C 4.604 10.864 4.608 10.859 4.611 10.856 C 4.672 10.81 4.733 10.762 4.79 10.717 C 4.799 10.707 4.815 10.705 4.826 10.71 C 6.7 11.565 8.727 11.565 10.578 10.71 C 10.591 10.705 10.606 10.707 10.616 10.717 C 10.672 10.762 10.733 10.81 10.793 10.856 C 10.814 10.871 10.813 10.904 10.791 10.917 C 10.505 11.083 10.206 11.223 9.897 11.342 C 9.886 11.345 9.879 11.353 9.875 11.362 C 9.872 11.372 9.872 11.383 9.878 11.391 C 10.05 11.725 10.245 12.042 10.463 12.343 C 10.471 12.355 10.486 12.361 10.502 12.356 C 11.532 12.041 12.499 11.551 13.365 10.912 C 13.373 10.904 13.379 10.895 13.379 10.885 C 13.618 8.417 12.978 6.271 11.686 4.372 C 11.684 4.366 11.679 4.359 11.672 4.358 Z M 5.808 9.585 C 5.244 9.585 4.78 9.067 4.78 8.432 C 4.78 7.795 5.236 7.277 5.808 7.277 C 6.386 7.277 6.845 7.799 6.837 8.432 C 6.837 9.067 6.381 9.585 5.808 9.585 Z M 9.61 9.585 C 9.046 9.585 8.583 9.067 8.583 8.432 C 8.583 7.795 9.038 7.277 9.61 7.277 C 10.188 7.277 10.65 7.799 10.639 8.432 C 10.639 9.067 10.188 9.585 9.61 9.585 Z" style="" transform="matrix(1, 0, 0, 1, -2.220446049250313e-16, 0)"/>
</svg>