<?xml version="1.0" standalone="no"?>
<!DOCTYPE svg PUBLIC "-//W3C//DTD SVG 20010904//EN"
 "http://www.w3.org/TR/2001/REC-SVG-20010904/DTD/svg10.dtd">
<svg version="1.0" xmlns="http://www.w3.org/2000/svg"
 width="144.000000pt" height="144.000000pt" viewBox="0 0 144.000000 144.000000"
 preserveAspectRatio="xMidYMid meet">

<g transform="translate(0.000000,144.000000) scale(0.100000,-0.100000)"
fill="#000000" stroke="none">
<path d="M650 1254 c-157 -28 -260 -84 -348 -189 -134 -157 -169 -383 -89
-567 8 -18 19 -44 24 -58 11 -27 69 -96 121 -144 48 -45 159 -106 192 -106 34
0 43 19 34 77 l-6 43 -48 0 c-74 0 -104 15 -129 65 -12 24 -35 55 -51 69 -32
27 -40 56 -15 56 19 0 67 -29 78 -47 35 -57 82 -80 140 -69 26 5 34 13 43 42
13 39 15 36 -51 53 -111 29 -175 122 -175 255 0 47 6 71 26 106 20 35 24 53
20 85 -3 22 -2 56 2 75 7 30 12 35 35 33 15 -1 52 -14 82 -29 53 -25 57 -26
119 -13 52 10 78 10 134 0 68 -12 71 -12 120 14 27 14 62 27 77 28 23 2 30 -3
37 -28 5 -16 6 -54 3 -82 -3 -29 -2 -53 3 -53 20 0 42 -80 42 -149 0 -133 -62
-215 -185 -246 -32 -8 -39 -14 -36 -30 2 -11 6 -73 8 -138 l4 -117 29 0 c56 0
192 94 268 184 67 79 112 217 112 341 0 236 -167 458 -392 519 -59 17 -185 28
-228 20z"/>
</g>
</svg>
