<?xml version="1.0" standalone="no"?>
<!DOCTYPE svg PUBLIC "-//W3C//DTD SVG 20010904//EN"
 "http://www.w3.org/TR/2001/REC-SVG-20010904/DTD/svg10.dtd">
<svg version="1.0" xmlns="http://www.w3.org/2000/svg"
 width="144.000000pt" height="144.000000pt" viewBox="0 0 144.000000 144.000000"
 preserveAspectRatio="xMidYMid meet">

<g transform="translate(0.000000,144.000000) scale(0.100000,-0.100000)"
fill="#000000" stroke="none">
<path d="M368 1173 c-42 -4 -52 -10 -106 -68 -33 -35 -63 -74 -67 -85 -17 -54
28 -141 80 -154 35 -9 91 17 113 53 l18 30 10 -28 c13 -32 75 -65 108 -57 31
8 76 44 76 62 0 23 14 16 32 -15 23 -42 81 -58 131 -37 20 8 42 26 49 40 12
28 28 35 28 12 0 -18 45 -54 76 -62 30 -8 92 23 108 53 l13 25 17 -27 c22 -33
78 -58 111 -49 34 8 73 57 81 101 9 47 -11 84 -82 154 l-55 54 -347 1 c-191 1
-368 -1 -394 -3z"/>
<path d="M367 855 c-16 -14 -41 -25 -56 -25 l-28 0 -5 -157 c-7 -182 4 -339
26 -381 19 -37 29 -39 244 -53 129 -9 215 -9 345 0 215 14 224 16 243 53 21
41 32 204 26 386 l-5 152 -28 0 c-15 0 -41 12 -58 26 l-31 26 -31 -26 c-42
-36 -106 -36 -148 0 l-31 26 -31 -26 c-43 -37 -115 -37 -158 0 l-31 26 -31
-26 c-42 -36 -106 -36 -147 -1 -17 14 -31 25 -33 25 -2 0 -17 -12 -32 -25z
m239 -102 c32 -20 196 -21 227 0 66 43 140 25 180 -45 23 -38 74 -198 92 -286
11 -53 -14 -82 -71 -82 -70 0 -114 25 -137 79 l-19 46 -164 0 c-153 0 -164 -1
-164 -18 0 -31 -32 -76 -66 -92 -18 -8 -53 -15 -78 -15 -57 0 -82 29 -71 82
18 88 69 248 92 286 40 69 114 88 179 45z"/>
<path d="M667 622 c-26 -26 -47 -51 -47 -55 0 -4 11 -7 25 -7 20 0 25 -5 25
-25 0 -23 3 -25 50 -25 47 0 50 2 50 25 0 20 5 25 25 25 14 0 25 4 25 8 0 8
-92 102 -101 102 -2 0 -26 -22 -52 -48z"/>
</g>
</svg>
