<?xml version="1.0" encoding="utf-8"?>
<svg viewBox="0 0 24 24" xmlns="http://www.w3.org/2000/svg">
    <path d="M 4.285 2.57 L 3.004 5.844 L 3.004 19.224 L 7.559 19.224 L 7.559 21.644 L 10.121 21.644 L 12.541 19.224 L 16.242 19.224 L 21.224 14.242 L 21.224 2.57 L 4.285 2.57 Z M 19.515 13.389 L 16.668 16.235 L 12.114 16.235 L 9.694 18.655 L 9.694 16.235 L 5.85 16.235 L 5.85 4.278 L 19.515 4.278 L 19.515 13.389 Z M 16.668 7.552 L 16.668 12.529 L 14.961 12.529 L 14.961 7.552 L 16.668 7.552 Z M 12.114 7.552 L 12.114 12.529 L 10.406 12.529 L 10.406 7.552 L 12.114 7.552 Z" fill-rule="evenodd" clip-rule="evenodd" style="" transform="matrix(1, 0, 0, 1, -2.220446049250313e-16, 0)"/>
</svg>